<svg height="480pt" viewBox="-48 0 480 480.00004" width="480pt" xmlns="http://www.w3.org/2000/svg"><path d="m376 56h-80v32h48v352h-304v-352h48v-32h-80v416h368zm0 0" fill="#9bc9ff"/><path d="m248 208c0 30.929688-25.070312 56-56 56s-56-25.070312-56-56 25.070312-56 56-56 56 25.070312 56 56zm0 0" fill="#9bc9ff"/><path d="m88 104h208v-48c-.027344-8.824219-7.175781-15.972656-16-16h-48c.011719-8.488281-3.355469-16.636719-9.359375-22.640625s-14.152344-9.371094-22.640625-9.359375h-16c-17.671875 0-32 14.328125-32 32h-48c-8.824219.027344-15.972656 7.175781-16 16zm104-56c8.835938 0 16 7.164062 16 16s-7.164062 16-16 16-16-7.164062-16-16c.027344-8.824219 7.175781-15.972656 16-16zm0 0" fill="#9bc9ff"/><g fill="#1e81ce"><path d="m184 235.3125-28.289062-28.289062 11.3125-11.3125 16.976562 16.976562 28.289062-28.289062 11.3125 11.3125zm0 0"/><path d="m120 320h-32c-4.417969 0-8-3.582031-8-8s3.582031-8 8-8h32c4.417969 0 8 3.582031 8 8s-3.582031 8-8 8zm0 0"/><path d="m296 320h-144c-4.417969 0-8-3.582031-8-8s3.582031-8 8-8h144c4.417969 0 8 3.582031 8 8s-3.582031 8-8 8zm0 0"/><path d="m120 352h-32c-4.417969 0-8-3.582031-8-8s3.582031-8 8-8h32c4.417969 0 8 3.582031 8 8s-3.582031 8-8 8zm0 0"/><path d="m296 352h-144c-4.417969 0-8-3.582031-8-8s3.582031-8 8-8h144c4.417969 0 8 3.582031 8 8s-3.582031 8-8 8zm0 0"/><path d="m120 384h-32c-4.417969 0-8-3.582031-8-8s3.582031-8 8-8h32c4.417969 0 8 3.582031 8 8s-3.582031 8-8 8zm0 0"/><path d="m296 384h-144c-4.417969 0-8-3.582031-8-8s3.582031-8 8-8h144c4.417969 0 8 3.582031 8 8s-3.582031 8-8 8zm0 0"/><path d="m192 272c-35.347656 0-64-28.652344-64-64s28.652344-64 64-64 64 28.652344 64 64c-.039062 35.328125-28.671875 63.960938-64 64zm0-112c-26.507812 0-48 21.492188-48 48s21.492188 48 48 48 48-21.492188 48-48c-.027344-26.5-21.5-47.972656-48-48zm0 0"/><path d="m376 48h-73.472656c-3.378906-9.554688-12.394532-15.957031-22.527344-16h-40.800781c-3.78125-18.636719-20.179688-32.0273438-39.199219-32h-16c-19 .0195312-35.375 13.386719-39.199219 32h-40.800781c-10.132812.042969-19.148438 6.445312-22.527344 16h-73.472656c-4.417969 0-8 3.582031-8 8v416c0 4.417969 3.582031 8 8 8h368c4.417969 0 8-3.582031 8-8v-416c0-4.417969-3.582031-8-8-8zm-288 64h208c4.417969 0 8-3.582031 8-8v-8h32v336h-288v-336h32v8c0 4.417969 3.582031 8 8 8zm16-64h48c4.417969 0 8-3.582031 8-8 0-13.253906 10.746094-24 24-24h16c6.367188-.011719 12.480469 2.511719 16.984375 7.015625s7.027344 10.617187 7.015625 16.984375c0 4.417969 3.582031 8 8 8h48c4.417969 0 8 3.582031 8 8v40h-192v-40c0-4.417969 3.582031-8 8-8zm264 416h-352v-400h64v16h-40c-4.417969 0-8 3.582031-8 8v352c0 4.417969 3.582031 8 8 8h304c4.417969 0 8-3.582031 8-8v-352c0-4.417969-3.582031-8-8-8h-40v-16h64zm0 0"/><path d="m192 88c13.253906 0 24-10.746094 24-24s-10.746094-24-24-24-24 10.746094-24 24 10.746094 24 24 24zm0-32c4.417969 0 8 3.582031 8 8s-3.582031 8-8 8-8-3.582031-8-8 3.582031-8 8-8zm0 0"/></g></svg>